<svg width="32" height="32" viewBox="0 0 24 24" fill="none" xmlns="http://www.w3.org/2000/svg">
<path d="M2.8042 15.477C2.8042 15.477 2.9462 17.215 2.9792 17.763C3.0232 18.498 3.3072 19.319 3.7812 19.889C4.4502 20.697 5.2382 20.982 6.2902 20.984C7.5272 20.986 16.5222 20.986 17.7592 20.984C18.8112 20.982 19.5992 20.697 20.2682 19.889C20.7422 19.319 21.0262 18.498 21.0712 17.763C21.1032 17.215 21.2452 15.477 21.2452 15.477" stroke="black" stroke-width="1.5" stroke-linecap="round" stroke-linejoin="round"/>
<path d="M8.49609 5.3295V4.9585C8.49609 3.7385 9.48409 2.7505 10.7041 2.7505H13.2861C14.5051 2.7505 15.4941 3.7385 15.4941 4.9585L15.4951 5.3295" stroke="black" stroke-width="1.5" stroke-linecap="round" stroke-linejoin="round"/>
<path d="M11.9951 16.6782V15.3842" stroke="black" stroke-width="1.5" stroke-linecap="round" stroke-linejoin="round"/>
<path fill-rule="evenodd" clip-rule="evenodd" d="M2.75 8.3891V11.8561C4.668 13.1211 6.966 14.0071 9.488 14.3581C9.79 13.2571 10.783 12.4501 11.99 12.4501C13.178 12.4501 14.191 13.2571 14.473 14.3681C17.005 14.0171 19.312 13.1311 21.24 11.8561V8.3891C21.24 6.6951 19.877 5.3311 18.183 5.3311H5.817C4.123 5.3311 2.75 6.6951 2.75 8.3891Z" stroke="black" stroke-width="1.5" stroke-linecap="round" stroke-linejoin="round"/>
</svg>
